# Blender 3.6.1
# www.blender.org
mtllib Card.mtl
o Rounded_Borders_Card
v -4.782000 -6.278508 0.005000
v -4.385508 -6.675000 0.005000
v -4.775976 -6.347358 0.005000
v -4.758088 -6.414116 0.005000
v -4.728879 -6.476754 0.005000
v -4.689238 -6.533369 0.005000
v -4.640368 -6.582239 0.005000
v -4.583754 -6.621881 0.005000
v -4.521115 -6.651089 0.005000
v -4.454357 -6.668977 0.005000
v -4.385508 6.675000 0.005000
v -4.782000 6.278508 0.005000
v -4.454357 6.668977 0.005000
v -4.521115 6.651089 0.005000
v -4.583754 6.621881 0.005000
v -4.640368 6.582239 0.005000
v -4.689238 6.533369 0.005000
v -4.728879 6.476754 0.005000
v -4.758088 6.414116 0.005000
v -4.775976 6.347358 0.005000
v -4.385508 -6.675000 -0.005000
v -4.782000 -6.278508 -0.005000
v -4.454357 -6.668977 -0.005000
v -4.521115 -6.651089 -0.005000
v -4.583754 -6.621881 -0.005000
v -4.640368 -6.582239 -0.005000
v -4.689238 -6.533369 -0.005000
v -4.728879 -6.476754 -0.005000
v -4.758088 -6.414116 -0.005000
v -4.775976 -6.347358 -0.005000
v -4.782000 6.278508 -0.005000
v -4.385508 6.675000 -0.005000
v -4.775976 6.347358 -0.005000
v -4.758088 6.414116 -0.005000
v -4.728879 6.476754 -0.005000
v -4.689238 6.533369 -0.005000
v -4.640368 6.582239 -0.005000
v -4.583754 6.621881 -0.005000
v -4.521115 6.651089 -0.005000
v -4.454357 6.668977 -0.005000
v 4.385507 -6.675000 0.005000
v 4.782000 -6.278508 0.005000
v 4.454358 -6.668977 0.005000
v 4.521116 -6.651089 0.005000
v 4.583754 -6.621881 0.005000
v 4.640368 -6.582239 0.005000
v 4.689239 -6.533369 0.005000
v 4.728880 -6.476754 0.005000
v 4.758089 -6.414116 0.005000
v 4.775977 -6.347358 0.005000
v 4.782000 6.278508 0.005000
v 4.385507 6.675000 0.005000
v 4.775977 6.347358 0.005000
v 4.758089 6.414116 0.005000
v 4.728880 6.476754 0.005000
v 4.689239 6.533369 0.005000
v 4.640368 6.582239 0.005000
v 4.583754 6.621881 0.005000
v 4.521116 6.651089 0.005000
v 4.454358 6.668977 0.005000
v 4.782000 -6.278508 -0.005000
v 4.385507 -6.675000 -0.005000
v 4.775977 -6.347358 -0.005000
v 4.758089 -6.414116 -0.005000
v 4.728880 -6.476754 -0.005000
v 4.689239 -6.533369 -0.005000
v 4.640368 -6.582239 -0.005000
v 4.583754 -6.621881 -0.005000
v 4.521116 -6.651089 -0.005000
v 4.454358 -6.668977 -0.005000
v 4.385507 6.675000 -0.005000
v 4.782000 6.278508 -0.005000
v 4.454358 6.668977 -0.005000
v 4.521116 6.651089 -0.005000
v 4.583754 6.621881 -0.005000
v 4.640368 6.582239 -0.005000
v 4.689239 6.533369 -0.005000
v 4.728880 6.476754 -0.005000
v 4.758089 6.414116 -0.005000
v 4.775977 6.347358 -0.005000
vn -0.0000 -0.0000 1.0000
vn 1.0000 -0.0000 -0.0000
vn -0.0000 1.0000 -0.0000
vn -1.0000 -0.0000 -0.0000
vn -0.0000 -0.0000 -1.0000
vn -0.0871 -0.9962 -0.0000
vn -0.2588 -0.9659 -0.0000
vn -0.4226 -0.9063 -0.0000
vn -0.5736 -0.8192 -0.0000
vn -0.7071 -0.7071 -0.0000
vn -0.8192 -0.5736 -0.0000
vn -0.9063 -0.4226 -0.0000
vn -0.9659 -0.2588 -0.0000
vn -0.9962 -0.0872 -0.0000
vn -0.0871 0.9962 -0.0000
vn -0.2588 0.9659 -0.0000
vn -0.4226 0.9063 -0.0000
vn -0.5736 0.8192 -0.0000
vn -0.7071 0.7071 -0.0000
vn -0.8192 0.5736 -0.0000
vn -0.9063 0.4226 -0.0000
vn -0.9659 0.2588 -0.0000
vn -0.9962 0.0872 -0.0000
vn 0.0871 -0.9962 -0.0000
vn 0.2588 -0.9659 -0.0000
vn 0.4226 -0.9063 -0.0000
vn 0.5736 -0.8192 -0.0000
vn 0.7071 -0.7071 -0.0000
vn 0.8192 -0.5736 -0.0000
vn 0.9063 -0.4226 -0.0000
vn 0.9659 -0.2588 -0.0000
vn 0.9962 -0.0871 -0.0000
vn 0.0871 0.9962 -0.0000
vn 0.2588 0.9659 -0.0000
vn 0.4226 0.9063 -0.0000
vn 0.5736 0.8192 -0.0000
vn 0.7071 0.7071 -0.0000
vn 0.8192 0.5736 -0.0000
vn 0.9063 0.4226 -0.0000
vn 0.9659 0.2588 -0.0000
vn 0.9962 0.0871 -0.0000
vn -0.0000 -1.0000 -0.0000
vt 0.375000 0.760364
vt 0.375113 0.758564
vt 0.375448 0.756819
vt 0.375995 0.755182
vt 0.376737 0.753702
vt 0.377652 0.752425
vt 0.378713 0.751389
vt 0.379885 0.750625
vt 0.381136 0.750157
vt 0.382425 0.750000
vt 0.617575 0.750000
vt 0.618864 0.750157
vt 0.620115 0.750625
vt 0.621288 0.751389
vt 0.622348 0.752425
vt 0.623263 0.753702
vt 0.624005 0.755182
vt 0.624552 0.756819
vt 0.624887 0.758564
vt 0.625000 0.760364
vt 0.625000 0.989636
vt 0.624887 0.991435
vt 0.624552 0.993181
vt 0.624005 0.994818
vt 0.623263 0.996298
vt 0.622348 0.997575
vt 0.621288 0.998611
vt 0.620115 0.999375
vt 0.618864 0.999843
vt 0.617575 1.000000
vt 0.382425 1.000000
vt 0.381136 0.999842
vt 0.379885 0.999375
vt 0.378712 0.998611
vt 0.377652 0.997575
vt 0.376737 0.996298
vt 0.375995 0.994818
vt 0.375448 0.993181
vt 0.375113 0.991435
vt 0.375000 0.989636
vt 0.382425 0.500000
vt 0.617575 0.500000
vt 0.617575 0.750000
vt 0.635364 0.500000
vt 0.864636 0.500000
vt 0.864636 0.750000
vt 0.635364 0.750000
vt 0.382425 0.000000
vt 0.617575 0.000000
vt 0.617575 0.250000
vt 0.382425 0.250000
vt 0.375000 0.260364
vt 0.375113 0.258564
vt 0.375448 0.256819
vt 0.375995 0.255182
vt 0.376737 0.253702
vt 0.377652 0.252425
vt 0.378712 0.251389
vt 0.379885 0.250625
vt 0.381136 0.250157
vt 0.617575 0.250000
vt 0.618864 0.250157
vt 0.620115 0.250625
vt 0.621288 0.251389
vt 0.622348 0.252425
vt 0.623263 0.253702
vt 0.624005 0.255182
vt 0.624552 0.256819
vt 0.624887 0.258564
vt 0.625000 0.260364
vt 0.625000 0.489636
vt 0.624887 0.491436
vt 0.624552 0.493181
vt 0.624005 0.494818
vt 0.623263 0.496298
vt 0.622348 0.497575
vt 0.621288 0.498611
vt 0.620115 0.499375
vt 0.618864 0.499843
vt 0.617575 0.500000
vt 0.381136 0.499843
vt 0.379885 0.499375
vt 0.378712 0.498611
vt 0.377652 0.497575
vt 0.376737 0.496298
vt 0.375995 0.494818
vt 0.375448 0.493181
vt 0.375113 0.491436
vt 0.375000 0.489636
vt 0.135364 0.500000
vt 0.135364 0.750000
vt 0.133564 0.750000
vt 0.133564 0.500000
vt 0.131819 0.750000
vt 0.131819 0.500000
vt 0.130182 0.750000
vt 0.130182 0.500000
vt 0.128702 0.750000
vt 0.128702 0.500000
vt 0.125000 0.750000
vt 0.125000 0.500000
vt 0.375000 0.250000
vt 0.375000 0.000000
vt 0.378712 0.000000
vt 0.378712 0.250000
vt 0.379885 0.000000
vt 0.379885 0.250000
vt 0.381136 0.000000
vt 0.381136 0.250000
vt 0.866436 0.500000
vt 0.866436 0.750000
vt 0.868181 0.500000
vt 0.868181 0.750000
vt 0.869818 0.500000
vt 0.869818 0.750000
vt 0.875000 0.500000
vt 0.875000 0.750000
vt 0.625000 0.000000
vt 0.625000 0.250000
vt 0.622348 0.250000
vt 0.622348 0.000000
vt 0.621288 0.250000
vt 0.621288 0.000000
vt 0.620115 0.250000
vt 0.620115 0.000000
vt 0.618864 0.250000
vt 0.618864 0.000000
vt 0.364636 0.750000
vt 0.364636 0.500000
vt 0.366436 0.500000
vt 0.366436 0.750000
vt 0.368181 0.500000
vt 0.368181 0.750000
vt 0.369818 0.500000
vt 0.369818 0.750000
vt 0.371298 0.500000
vt 0.371298 0.750000
vt 0.377652 0.500000
vt 0.377652 0.750000
vt 0.378712 0.500000
vt 0.378712 0.750000
vt 0.379885 0.500000
vt 0.379885 0.750000
vt 0.381136 0.500000
vt 0.381136 0.750000
vt 0.633564 0.750000
vt 0.633564 0.500000
vt 0.631819 0.750000
vt 0.631819 0.500000
vt 0.630182 0.750000
vt 0.630182 0.500000
vt 0.628702 0.750000
vt 0.628702 0.500000
vt 0.622348 0.750000
vt 0.622348 0.500000
vt 0.621288 0.750000
vt 0.621288 0.500000
vt 0.620115 0.750000
vt 0.620115 0.500000
vt 0.618864 0.750000
vt 0.618864 0.500000
s 0
f 41/1/1 43/2/1 44/3/1 45/4/1 46/5/1 47/6/1 48/7/1 49/8/1 50/9/1 42/10/1 51/11/1 53/12/1 54/13/1 55/14/1 56/15/1 57/16/1 58/17/1 59/18/1 60/19/1 52/20/1 11/21/1 13/22/1 14/23/1 15/24/1 16/25/1 17/26/1 18/27/1 19/28/1 20/29/1 12/30/1 1/31/1 3/32/1 4/33/1 5/34/1 6/35/1 7/36/1 8/37/1 9/38/1 10/39/1 2/40/1
f 61/41/2 72/42/2 51/43/2 42/10/2
f 71/44/3 32/45/3 11/46/3 52/47/3
f 1/48/4 12/49/4 31/50/4 22/51/4
f 21/52/5 23/53/5 24/54/5 25/55/5 26/56/5 27/57/5 28/58/5 29/59/5 30/60/5 22/51/5 31/61/5 33/62/5 34/63/5 35/64/5 36/65/5 37/66/5 38/67/5 39/68/5 40/69/5 32/70/5 71/71/5 73/72/5 74/73/5 75/74/5 76/75/5 77/76/5 78/77/5 79/78/5 80/79/5 72/80/5 61/41/5 63/81/5 64/82/5 65/83/5 66/84/5 67/85/5 68/86/5 69/87/5 70/88/5 62/89/5
f 21/90/6 2/91/6 10/92/6 23/93/6
f 23/93/7 10/92/7 9/94/7 24/95/7
f 24/95/8 9/94/8 8/96/8 25/97/8
f 25/97/9 8/96/9 7/98/9 26/99/9
f 26/99/10 7/98/10 6/100/10 27/101/10
f 27/102/11 6/103/11 5/104/11 28/105/11
f 28/105/12 5/104/12 4/106/12 29/107/12
f 29/107/13 4/106/13 3/108/13 30/109/13
f 30/109/14 3/108/14 1/48/14 22/51/14
f 11/46/15 32/45/15 40/110/15 13/111/15
f 13/111/16 40/110/16 39/112/16 14/113/16
f 14/113/17 39/112/17 38/114/17 15/115/17
f 15/115/18 38/114/18 37/116/18 16/117/18
f 16/118/19 37/119/19 36/120/19 17/121/19
f 17/121/20 36/120/20 35/122/20 18/123/20
f 18/123/21 35/122/21 34/124/21 19/125/21
f 19/125/22 34/124/22 33/126/22 20/127/22
f 20/127/23 33/126/23 31/50/23 12/49/23
f 41/128/24 62/129/24 70/130/24 43/131/24
f 43/131/25 70/130/25 69/132/25 44/133/25
f 44/133/26 69/132/26 68/134/26 45/135/26
f 45/135/27 68/134/27 67/136/27 46/137/27
f 46/137/28 67/136/28 66/138/28 47/139/28
f 47/139/29 66/138/29 65/140/29 48/141/29
f 48/141/30 65/140/30 64/142/30 49/143/30
f 49/143/31 64/142/31 63/144/31 50/145/31
f 50/145/32 63/144/32 61/41/32 42/10/32
f 71/44/33 52/47/33 60/146/33 73/147/33
f 73/147/34 60/146/34 59/148/34 74/149/34
f 74/149/35 59/148/35 58/150/35 75/151/35
f 75/151/36 58/150/36 57/152/36 76/153/36
f 76/153/37 57/152/37 56/154/37 77/155/37
f 77/155/38 56/154/38 55/156/38 78/157/38
f 78/157/39 55/156/39 54/158/39 79/159/39
f 79/159/40 54/158/40 53/160/40 80/161/40
f 80/161/41 53/160/41 51/43/41 72/42/41
f 21/90/42 62/129/42 41/128/42 2/91/42
